<svg width="151" height="108" viewBox="0 0 151 108" fill="none" xmlns="http://www.w3.org/2000/svg">
<path fill-rule="evenodd" clip-rule="evenodd" d="M68.5873 6.96182C68.2626 10.1427 65.5799 12.6242 62.3186 12.6242C60.0594 12.6242 58.0778 11.4334 56.9654 9.64421C38.4108 16.4437 25.1656 34.2862 25.1656 55.2309C25.1656 63.8274 27.3958 71.8997 31.3092 78.9015L31.3352 78.9014C33.2433 78.9014 34.8542 80.1755 35.3663 81.9208C35.477 82.2977 35.5363 82.6966 35.5363 83.1094C35.5363 83.7072 35.4118 84.2759 35.1875 84.7909C35.9663 85.805 36.7842 86.7875 37.639 87.736L37.6393 87.7364L38.3934 88.5737L38.9537 88.2799L44.6905 94.4593L39.2433 96.4159L34.1879 90.7792L34.7917 90.4625L34.7119 90.3738L34.7115 90.3735C33.8037 89.366 32.9342 88.323 32.1056 87.2469C31.8558 87.2933 31.5983 87.3175 31.3352 87.3175C29.0149 87.3175 27.134 85.4335 27.134 83.1094C27.134 82.2447 27.3944 81.4408 27.841 80.7723C24.9374 75.5633 22.894 69.8073 21.9041 63.698V66.3326C21.5032 66.8389 21.1099 67.3325 20.7233 67.8178C18.3097 70.8474 16.1549 73.5522 14 77C12.5457 79.6799 10.9096 82.7347 9.15831 86.192C9.27497 86.1877 9.39217 86.1856 9.50987 86.1856C13.8291 86.1856 17.4758 89.0698 18.635 93.0204C18.8854 93.8737 19.0197 94.7767 19.0197 95.7111C19.0197 97.9917 18.2196 100.085 16.8853 101.725C16.9219 101.73 16.9585 101.734 16.9953 101.739C21.82 102.331 28.1679 101.813 35.6603 100.173C41.884 98.8099 48.8118 96.6921 56.1844 93.8715L55.6982 93.7484C69.1486 87.4422 80.1476 81.9199 88.6952 77.1816C93.1361 74.7197 97.6774 72.0471 102.319 69.1635C101.953 68.3832 101.748 67.5117 101.748 66.5923C101.748 63.2515 104.452 60.5432 107.787 60.5432C109.633 60.5432 111.285 61.3725 112.393 62.6793C112.491 62.6137 112.59 62.5481 112.688 62.4823C120.95 56.2741 127.977 50.0232 133.459 44.1106C138.5 38.6728 145.5 27 140.5 20C135.161 13.0598 116.504 15.4819 109.58 17.0893C116.193 23.3487 121.179 31.3147 123.836 40.2828L124.501 40.1994L125.525 45.417L120.649 48.8535C120.513 47.7492 120.346 46.493 120.151 45.085C119.955 43.6769 119.647 42.2691 119.227 40.8614L119.869 40.7808C113.729 21.0338 95.3357 6.70422 73.6091 6.70422C71.9135 6.70422 70.2381 6.7915 68.5873 6.96182ZM107.733 15.4226C98.5675 7.53288 86.6456 2.76393 73.6091 2.76393C71.6245 2.76393 69.6656 2.87447 67.7384 3.08972C66.6397 1.23967 64.6237 0 62.3186 0C59.0144 0 56.3041 2.54725 56.0383 5.78824C35.7485 13.0221 21.2253 32.4295 21.2253 55.2309C21.2253 58.0998 21.4553 60.9151 21.8979 63.6593C18.4373 66.7893 15.4927 70.2255 12.5 74C11.4675 75.3022 6.76798 82.2478 4.90058 86.2599C4.66513 86.7658 4.44612 87.2718 4.24563 87.7769C1.68635 89.484 0 92.4003 0 95.7111C0 100.972 4.25771 105.237 9.50987 105.237C10.2442 105.237 10.9591 105.153 11.6456 104.996C13.1353 105.489 14.756 105.831 16.4673 106.041C21.9665 106.716 28.8479 106.101 36.5873 104.407C39.7842 103.707 43.1487 102.818 46.6492 101.747C54.5882 106.221 64.1827 107.698 73.6091 107.698C90.6371 107.698 105.766 99.5611 115.333 86.9589C115.682 87.0217 116.041 87.0545 116.408 87.0545C119.744 87.0545 122.447 84.3462 122.447 81.0054C122.447 80.412 122.362 79.8385 122.203 79.2967C121.985 78.552 121.627 77.8671 121.16 77.2719C123.983 71.1723 125.671 64.4382 125.951 57.3422C131.342 52.6464 135.985 47.9991 139.746 43.552C144.863 37.5 154.841 25.5 147.5 16C140.75 7.26462 118.333 11.9302 107.733 15.4226ZM121.725 60.9078C119.799 62.4826 117.794 64.0586 115.713 65.6301C115.408 67.2254 114.825 69.0795 113.966 71.1924C112.306 75.2712 109.978 79.1449 106.98 82.8125C105.61 84.488 104.04 85.9876 102.303 87.2774C97.9362 90.5215 92.8946 92.9551 87.1787 94.5788C81.0873 96.3091 74.8113 96.9545 68.3505 96.515C66.7798 96.4081 65.2219 96.1599 63.6957 95.7733L63.3295 95.6806C59.4581 97.296 55.6762 98.7383 52.0164 99.9998C58.4392 102.731 65.9259 103.758 73.6091 103.758C89.1633 103.758 103.007 96.4139 111.871 84.9977C110.936 83.9325 110.369 82.5353 110.369 81.0054C110.369 77.6646 113.073 74.9563 116.408 74.9563C116.891 74.9563 117.36 75.013 117.81 75.1201C119.797 70.6953 121.142 65.9181 121.725 60.9078ZM113.952 54.2458C113.596 32.3668 95.6549 14.74 73.5754 14.74C51.2728 14.74 33.193 32.7247 33.193 54.9101C33.193 69.6027 41.1227 82.4529 52.9572 89.4569L68.3937 80.7148C63.0709 80.0427 58.5992 77.7381 54.9785 73.8011C50.4256 69.0303 47.3265 62.6107 47.3265 54.3319C47.3265 45.9595 50.449 39.1424 55.0485 34.0909C59.648 29.0394 65.7302 26.5137 73.2949 26.5137C79.8557 26.5137 85.1265 28.18 89.1073 31.5125C93.0882 34.8451 93.925 36.8285 94.5087 41.8098L85.3425 43.9834C84.5253 40.452 82.529 37.9847 79.3537 36.5816C77.5793 35.8098 75.6064 35.4239 73.435 35.4239C69.2791 35.4239 65.8644 36.9967 63.1911 40.1421C60.5178 43.2876 59.1811 48.0175 59.1811 54.3319C59.1811 60.693 60.6287 65.1949 63.5238 67.8376C66.419 70.4803 69.711 71.8016 73.4 71.8016C77.0189 71.8016 84.6014 70.2197 85.3067 68.8896C85.7647 68.026 85.7518 65.6607 85.7404 63.571C85.7334 62.2822 85.7269 61.0982 85.8318 60.4358H77.2515C75.8013 60.4358 74.6258 59.2582 74.6258 57.8057V51.8061H96.1292L96.1292 65.007L100.228 62.6856C100.163 62.3587 100.129 62.0206 100.129 61.6745C100.129 58.8421 102.421 56.546 105.249 56.546C106.579 56.546 107.791 57.054 108.701 57.8869L113.958 54.9101L113.952 54.2458Z" fill="url(#paint0_linear_29_128)"/>
<defs>
<linearGradient id="paint0_linear_29_128" x1="0" y1="53.849" x2="150.105" y2="53.849" gradientUnits="userSpaceOnUse">
<stop stop-color="#565DF1"/>
<stop offset="1" stop-color="#9672FF"/>
</linearGradient>
</defs>
</svg>
